<?xml version="1.0" encoding="utf-8"?>
<!-- Generator: Adobe Illustrator 26.4.1, SVG Export Plug-In . SVG Version: 6.00 Build 0)  -->
<svg version="1.1" id="图层_1" xmlns="http://www.w3.org/2000/svg" xmlns:xlink="http://www.w3.org/1999/xlink" x="0px" y="0px"
	 viewBox="0 0 32.9 8.5" style="enable-background:new 0 0 32.9 8.5;" xml:space="preserve">
<g>
	<path d="M1.5,2.4l1.2,4.2l1.1-4.2h1.1l1.2,4.2l1.1-4.2h1.3L6.6,8H5.5L4.3,3.8L3.1,8H2L0.2,2.4H1.5z"/>
	<path d="M10.2,2.4l1.3,1.7l1.2-1.7h1.4l-2,2.6l2.2,3h-1.4l-1.4-2.2L10,7.9H8.6l2.2-3l-2-2.6L10.2,2.4L10.2,2.4z"/>
	<path d="M19.6,3.8h-1.2c-0.1-0.3-0.2-0.5-0.4-0.7c-0.2-0.1-0.5-0.2-0.9-0.2s-0.6,0-0.8,0.2C16.1,3.2,16,3.4,16,3.6s0.2,0.4,0.5,0.5
		c0.2,0.1,0.6,0.2,1.2,0.3c0.7,0.2,1.2,0.3,1.5,0.6c0.5,0.3,0.7,0.7,0.7,1.2C19.9,7.4,19,8,17.3,8c-1.6,0-2.5-0.7-2.6-2h1.2
		c0.1,0.4,0.2,0.7,0.4,0.8c0.2,0.1,0.5,0.2,1,0.2c0.9,0,1.4-0.3,1.4-0.8c0-0.3-0.2-0.5-0.5-0.7C18,5.4,17.6,5.3,17,5.2
		c-0.7-0.2-1.2-0.3-1.5-0.5C15,4.4,14.8,4,14.8,3.5s0.2-0.9,0.7-1.2c0.4-0.3,1-0.4,1.7-0.4C18.6,2,19.5,2.6,19.6,3.8z"/>
	<path d="M21.9,2.2v3.5c0,0.5,0.1,0.8,0.3,1.1c0.2,0.2,0.5,0.3,1,0.3c0.3,0,0.6-0.1,0.9-0.4s0.5-0.6,0.6-1V2.2h1.2v5.7h-1.2V7.2
		c-0.5,0.6-1.1,0.9-1.8,0.9c-1.4,0-2.1-0.8-2.1-2.3V2.2H21.9z"/>
	<path d="M27.9,0.1v3.1c0.5-0.7,1-1,1.7-1c0.8,0,1.4,0.3,1.9,0.9c0.4,0.5,0.6,1.2,0.6,2c0,0.9-0.2,1.6-0.7,2.1
		c-0.5,0.6-1.1,0.9-2,0.9c-0.8,0-1.4-0.3-1.7-0.8V8h-1.1V0.1H27.9z M28.3,3.7c-0.3,0.4-0.4,0.9-0.4,1.5v0.1c0,0.6,0.1,1,0.4,1.4
		s0.7,0.6,1.2,0.6c0.6,0,1-0.2,1.3-0.6c0.2-0.3,0.3-0.8,0.3-1.4S31,4.2,30.7,3.9c-0.3-0.4-0.7-0.6-1.3-0.6C29,3.2,28.6,3.3,28.3,3.7
		z"/>
</g>
</svg>
